#N canvas 708 348 723 511 10;
#X obj 121 326 mtof;
#X obj 123 359 phasor~;
#X obj 188 437 dac~;
#X obj 179 394 *~;
#N canvas 0 50 450 250 (subpatch) 0;
#X array seq 16 float 3;
#A 0 -0.285714 -0.0571409 0.0714313 0.114289 0.171432 0.200004 0.214289
0.214289 0.228575 0.228575 0.171432 0.114289 0.0142881 -0.0428551 -0.12857
0.223809;
#X coords 0 1 16 -1 200 140 1 0 0;
#X restore 475 30 graph;
#X obj 287 133 vline~;
#X obj 269 211 snapshot~;
#X floatatom 329 266 5 0 0 0 - - -, f 5;
#X obj 137 145 vsl 15 128 0 127 0 0 empty empty empty 0 -9 0 10 -262144
-1 -1 8700 1;
#X obj 131 48 bng 15 250 50 0 empty empty empty 17 7 0 10 -262144 -1
-1;
#X obj 96 290 float;
#X msg 256 94 1 1000 \, 0.7 1000 1000 \, 0 1000 1000;
#X obj 361 141 tgl 15 0 empty empty empty 17 7 0 10 -262144 -1 -1 1
1;
#X obj 361 161 metro 10;
#X connect 0 0 1 0;
#X connect 1 0 3 0;
#X connect 3 0 2 0;
#X connect 3 0 2 1;
#X connect 5 0 6 0;
#X connect 6 0 7 0;
#X connect 6 0 3 1;
#X connect 8 0 10 1;
#X connect 9 0 10 0;
#X connect 9 0 11 0;
#X connect 10 0 0 0;
#X connect 11 0 5 0;
#X connect 12 0 13 0;
#X connect 13 0 6 0;
