#N canvas 420 270 450 300 10;
#X obj 23 45 tgl 15 0 empty empty empty 17 7 0 10 -262144 -1 -1 1 1
;
#X obj 23 80 metro 1000;
#X obj 80 42 expr 60000 / $f1;
#X obj 23 113 outlet;
#X obj 80 13 inlet;
#X connect 0 0 1 0;
#X connect 1 0 3 0;
#X connect 2 0 1 1;
#X connect 4 0 2 0;
