#N canvas 822 263 450 300 10;
#X floatatom 70 52 5 0 0 0 - - -, f 5;
#X obj 41 197 bng 15 250 50 0 empty empty empty 17 7 0 10 -262144 -1
-1;
#X obj 15 123 tgl 15 0 empty empty empty 17 7 0 10 -262144 -1 -1 1
1;
#X obj 41 154 metro 1000;
#X floatatom 146 123 5 0 0 0 - - -, f 5;
#X obj 70 92 expr 60000 / $f1;
#X connect 0 0 5 0;
#X connect 2 0 3 0;
#X connect 3 0 1 0;
#X connect 5 0 3 1;
#X connect 5 0 4 0;
