#N canvas 0 94 2048 1058 10;
#X obj 88 45 mtof;
#X obj 41 605 dac~;
#N canvas 0 50 450 250 (subpatch) 0;
#X array sawtooth 100 float 1;
#A 0 0 0 0 0 0 0 0 0 0 0 0 0 0 0 0 0 0 0 0 0 0 0 0 0 0 0 0 0 0 0 0
0 0 0 0 0 0 0 0 0 0 0 0 0 0 0 0 0 0 0 0 0 0 0 0 0 0 0 0 0 0 0 0 0 0
0 0 0 0 0 0 0 0 0 0 0 0 0 0 0 0 0 0 0 0 0 0 0 0 0 0 0 0 0 0 0 0 0 0
0;
#X coords 0 1 100 -1 200 140 1 0 0;
#X restore 690 254 graph;
#X obj 589 36 vsl 15 128 0 127 0 0 empty empty empty 0 -9 0 10 -262144
-1 -1 0 1;
#X obj 591 176 /;
#X floatatom 588 199 5 0 0 0 - - -, f 5;
#X msg 615 149 127;
#X obj 52 362 *~;
#X obj 89 20 hsl 128 15 0 127 0 0 empty empty empty -2 -8 0 10 -262144
-1 -1 6800 1;
#N canvas 0 50 450 250 (subpatch) 0;
#X array magnitude 21 float 5;
#A 0 0 0 0 0 0 0 0 0 0 0 0 0 0 0 0 0 0 0 0 0 0;
#X coords 0 20 20 0 300 200 1 0 0;
#X restore 698 22 graph;
#X floatatom 53 102 5 0 0 0 - - -, f 5;
#X obj 53 75 f;
#X obj 53 43 bng 15 250 50 0 empty empty empty 17 7 0 10 -262144 -1
-1;
#X obj 223 568 metro 100;
#X obj 256 542 tgl 15 0 empty empty empty 17 7 0 10 -262144 -1 -1 1
1;
#X obj 274 677 tabwrite~ sawtooth;
#X obj 138 748 tabwrite~ magnitude;
#X obj 93 649 *~;
#X obj 128 651 *~;
#X obj 115 688 +~;
#X obj 113 718 sqrt~;
#X obj 86 593 fft~;
#X obj 52 133 phasor~;
#X obj 122 439 hsl 128 15 0 127 0 0 empty empty empty -2 -8 0 10 -262144
-1 -1 6470 1;
#X obj 119 459 mtof;
#X obj 51 474 lop~;
#X obj 215 103 delay 1000;
#X msg 160 123 1 1000;
#X msg 216 153 0 1000;
#X obj 100 295 line;
#X floatatom 84 329 5 0 0 0 - - -, f 5;
#X obj 212 301 snapshot~;
#X floatatom 213 328 5 0 0 0 - - -, f 5;
#X obj 311 261 tgl 15 0 empty empty empty 17 7 0 10 -262144 -1 -1 0
1;
#X obj 311 281 metro 10;
#X floatatom 344 410 5 0 0 0 - - -, f 5;
#X obj 207 231 osc~ 1;
#X obj 303 365 expr ($f1+1)/2 * 127;
#X obj 206 259 *~ 0.5;
#X connect 0 0 11 1;
#X connect 3 0 4 0;
#X connect 4 0 5 0;
#X connect 6 0 4 1;
#X connect 7 0 25 0;
#X connect 8 0 0 0;
#X connect 10 0 22 0;
#X connect 11 0 10 0;
#X connect 12 0 11 0;
#X connect 12 0 26 0;
#X connect 12 0 27 0;
#X connect 13 0 15 0;
#X connect 13 0 16 0;
#X connect 14 0 13 0;
#X connect 17 0 19 0;
#X connect 18 0 19 1;
#X connect 19 0 20 0;
#X connect 20 0 16 0;
#X connect 21 0 17 0;
#X connect 21 0 17 1;
#X connect 21 1 18 0;
#X connect 21 1 18 1;
#X connect 22 0 7 0;
#X connect 23 0 24 0;
#X connect 24 0 25 1;
#X connect 25 0 1 0;
#X connect 25 0 1 1;
#X connect 25 0 21 0;
#X connect 25 0 15 0;
#X connect 26 0 28 0;
#X connect 27 0 29 0;
#X connect 28 0 29 0;
#X connect 29 0 30 0;
#X connect 30 0 7 1;
#X connect 31 0 32 0;
#X connect 32 0 37 0;
#X connect 33 0 34 0;
#X connect 34 0 31 0;
#X connect 36 0 38 0;
#X connect 37 0 23 0;
#X connect 37 0 35 0;
#X connect 38 0 31 0;
