#N canvas 1096 397 838 502 10;
#X floatatom 48 264 5 0 0 0 - - -, f 5;
#X floatatom 77 182 5 0 0 0 - - -, f 5;
#X obj 49 219 expr (-1*$f2 + sqrt(pow($f2 \, 2) - 4*$f1*$f3))/(2*$f1)
;
#X floatatom 191 181 5 0 0 0 - - -, f 5;
#X floatatom 280 181 5 0 0 0 - - -, f 5;
#X obj 458 230 sqrt;
#X obj 414 149 pow;
#X obj 455 185 -;
#X floatatom 499 24 5 0 0 0 - - -, f 5;
#X floatatom 454 20 5 0 0 0 - - -, f 5;
#X floatatom 558 25 5 0 0 0 - - -, f 5;
#X obj 527 278 +;
#X obj 626 314 /;
#X obj 478 127 *;
#X obj 480 164 *;
#X obj 673 175 *;
#X msg 702 131 -1;
#X msg 512 142 4;
#X msg 434 124 2;
#X msg 682 237 2;
#X obj 651 271 *;
#X floatatom 596 382 5 0 0 0 - - -, f 5;
#X connect 1 0 2 0;
#X connect 2 0 0 0;
#X connect 3 0 2 1;
#X connect 4 0 2 2;
#X connect 5 0 11 0;
#X connect 6 0 7 0;
#X connect 7 0 5 0;
#X connect 8 0 15 0;
#X connect 8 0 6 0;
#X connect 9 0 13 0;
#X connect 9 0 20 0;
#X connect 10 0 13 1;
#X connect 11 0 12 0;
#X connect 12 0 21 0;
#X connect 13 0 14 0;
#X connect 14 0 7 1;
#X connect 15 0 11 1;
#X connect 16 0 15 1;
#X connect 17 0 14 1;
#X connect 18 0 6 1;
#X connect 19 0 20 1;
#X connect 20 0 12 1;
