#N canvas 607 318 450 300 10;
#X floatatom 26 29 5 0 0 0 - - -, f 5;
#X floatatom 80 27 5 0 0 0 - - -, f 5;
#X floatatom 56 106 5 0 0 0 - - -, f 5;
#X obj 53 63 +;
#X floatatom 137 31 5 0 0 0 - - -, f 5;
#X floatatom 191 29 5 0 0 0 - - -, f 5;
#X floatatom 167 108 5 0 0 0 - - -, f 5;
#X floatatom 26 152 5 0 0 0 - - -, f 5;
#X floatatom 80 150 5 0 0 0 - - -, f 5;
#X floatatom 56 229 5 0 0 0 - - -, f 5;
#X floatatom 137 150 5 0 0 0 - - -, f 5;
#X floatatom 191 148 5 0 0 0 - - -, f 5;
#X floatatom 167 227 5 0 0 0 - - -, f 5;
#X obj 164 65 -;
#X obj 53 186 *;
#X obj 164 184 /;
#X connect 0 0 3 0;
#X connect 1 0 3 1;
#X connect 3 0 2 0;
#X connect 4 0 13 0;
#X connect 5 0 13 1;
#X connect 7 0 14 0;
#X connect 8 0 14 1;
#X connect 10 0 15 0;
#X connect 11 0 15 1;
#X connect 13 0 6 0;
#X connect 14 0 9 0;
#X connect 15 0 12 0;
