#N canvas 0 94 1024 674 10;
#X obj 563 131 hradio 15 1 0 8 empty empty empty 0 -8 0 10 -262144
-1 -1 3;
#X obj 563 98 expr ($f1 + 1) % 8;
#X obj 531 98 f;
#X obj 49 53 expr 60000 / $f1;
#X floatatom 50 16 5 0 0 0 - - -, f 5;
#X obj 563 162 select 0 1 2 3 4 5 6 7;
#X obj 621 514 *~;
#X obj 612 584 dac~;
#X obj 593 6 r bpm;
#X obj 49 89 s bpm;
#X obj 531 65 metro 1000;
#X obj 591 36 expr $f1 / 2;
#X obj 643 194 vsl 15 128 0 127 0 0 empty empty empty 0 -9 0 10 -262144
-1 -1 8800 1;
#X obj 676 194 vsl 15 128 0 127 0 0 empty empty empty 0 -9 0 10 -262144
-1 -1 4900 1;
#X obj 709 194 vsl 15 128 0 127 0 0 empty empty empty 0 -9 0 10 -262144
-1 -1 5500 1;
#X obj 742 194 vsl 15 128 0 127 0 0 empty empty empty 0 -9 0 10 -262144
-1 -1 7500 1;
#X obj 512 195 vsl 15 128 0 127 0 0 empty empty empty 0 -9 0 10 -262144
-1 -1 4600 1;
#X obj 539 194 vsl 15 128 0 127 0 0 empty empty empty 0 -9 0 10 -262144
-1 -1 8200 1;
#X obj 572 194 vsl 15 128 0 127 0 0 empty empty empty 0 -9 0 10 -262144
-1 -1 5400 1;
#X obj 605 194 vsl 15 128 0 127 0 0 empty empty empty 0 -9 0 10 -262144
-1 -1 4400 1;
#X obj 488 333 mtof;
#X obj 581 333 mtof;
#X obj 620 333 mtof;
#X obj 690 333 mtof;
#X obj 657 333 mtof;
#X obj 538 333 mtof;
#X obj 761 333 mtof;
#X obj 728 333 mtof;
#X obj 619 384 f;
#X obj 511 26 tgl 15 0 empty empty empty 17 7 0 10 -262144 -1 -1 1
1;
#X floatatom 626 415 5 0 0 0 - - -, f 5;
#X obj 494 433 expr $f1 + 0.1*$f2;
#X obj 654 433 expr $f1 - 0.1*$f2;
#X obj 564 477 phasor~;
#X obj 674 476 phasor~;
#X obj 1286 488 hsl 128 15 0 127 0 0 empty empty empty -2 -8 0 10 -262144
-1 -1 0 1;
#X obj 1211 299 line;
#X floatatom 1230 371 5 0 0 0 - - -, f 5;
#X obj 1302 547 expr $f1 * $f2 / 127;
#X obj 1269 208 delay 10;
#X msg 1185 212 1 1;
#X msg 1278 262 0 100;
#X connect 0 0 5 0;
#X connect 1 0 2 1;
#X connect 1 0 0 0;
#X connect 2 0 1 0;
#X connect 3 0 9 0;
#X connect 4 0 3 0;
#X connect 5 0 16 0;
#X connect 5 1 17 0;
#X connect 5 2 18 0;
#X connect 5 3 19 0;
#X connect 5 4 12 0;
#X connect 5 5 13 0;
#X connect 5 6 14 0;
#X connect 5 7 15 0;
#X connect 6 0 7 0;
#X connect 6 0 7 1;
#X connect 8 0 11 0;
#X connect 10 0 2 0;
#X connect 10 0 40 0;
#X connect 10 0 39 0;
#X connect 11 0 10 1;
#X connect 12 0 24 0;
#X connect 13 0 23 0;
#X connect 14 0 27 0;
#X connect 15 0 26 0;
#X connect 16 0 20 0;
#X connect 17 0 25 0;
#X connect 18 0 21 0;
#X connect 19 0 22 0;
#X connect 20 0 28 0;
#X connect 21 0 28 0;
#X connect 22 0 28 0;
#X connect 23 0 28 0;
#X connect 24 0 28 0;
#X connect 25 0 28 0;
#X connect 26 0 28 0;
#X connect 27 0 28 0;
#X connect 28 0 31 0;
#X connect 28 0 32 0;
#X connect 29 0 10 0;
#X connect 30 0 31 1;
#X connect 30 0 32 1;
#X connect 31 0 33 0;
#X connect 32 0 34 0;
#X connect 33 0 6 0;
#X connect 34 0 6 0;
#X connect 36 0 37 0;
#X connect 36 0 6 1;
#X connect 39 0 41 0;
#X connect 40 0 36 0;
#X connect 41 0 36 0;
