#N canvas 1246 334 637 477 10;
#X obj 121 326 mtof;
#X obj 123 359 phasor~;
#N canvas 0 50 450 250 (subpatch) 0;
#X array seq 16 float 3;
#A 0 0.0142854 0.228571 0.342856 0.357142 0.357142 0.242856 0.0571425
-0.0285716 -0.0714287 -0.0714287 0.0857139 0.242856 0.442856 0.557141
0.557141 0.52857;
#X coords 0 1 16 -1 200 140 1;
#X restore 424 63 graph;
#X obj 160 49 tgl 15 0 empty empty empty 17 7 0 10 -262144 -1 -1 1
1;
#X obj 107 172 f;
#X obj 107 194 mod 16;
#X obj 154 175 + 1;
#X obj 114 232 tabread seq;
#X obj 114 254 + 1;
#X obj 114 276 * 50;
#X obj 114 298 int;
#X obj 188 437 dac~;
#X obj 179 394 *~;
#X obj 243 300 line;
#X msg 235 218 1 5;
#X obj 160 69 metro 150;
#X obj 290 193 delay 10;
#X msg 300 272 0 100;
#X connect 0 0 1 0;
#X connect 1 0 12 0;
#X connect 3 0 15 0;
#X connect 4 0 5 0;
#X connect 4 0 6 0;
#X connect 5 0 7 0;
#X connect 6 0 4 1;
#X connect 7 0 8 0;
#X connect 8 0 9 0;
#X connect 9 0 10 0;
#X connect 10 0 0 0;
#X connect 12 0 11 0;
#X connect 12 0 11 1;
#X connect 13 0 12 1;
#X connect 14 0 13 0;
#X connect 15 0 4 0;
#X connect 15 0 14 0;
#X connect 15 0 16 0;
#X connect 16 0 17 0;
#X connect 17 0 13 0;
