#N canvas 1049 235 450 300 10;
#X obj 51 84 osc~;
#X obj 52 220 *~;
#X obj 52 265 dac~;
#X floatatom 51 59 5 0 0 0 - - -, f 5;
#X obj 51 31 mtof;
#X obj 54 6 hsl 128 15 0 127 0 0 empty empty empty -2 -8 0 10 -262144
-1 -1 8800 1;
#X obj 91 34 vsl 15 128 0 127 0 0 empty empty empty 0 -9 0 10 -262144
-1 -1 2300 1;
#X obj 99 171 /;
#X floatatom 98 192 5 0 0 0 - - -, f 5;
#X floatatom 119 148 5 0 0 0 - - -, f 5;
#X connect 0 0 1 0;
#X connect 1 0 2 0;
#X connect 1 0 2 1;
#X connect 3 0 0 0;
#X connect 4 0 3 0;
#X connect 5 0 4 0;
#X connect 6 0 7 0;
#X connect 7 0 8 0;
#X connect 8 0 1 1;
#X connect 9 0 7 1;
