#N canvas 900 221 959 845 10;
#X obj 64 110 mtof;
#X obj 65 148 phasor~;
#X obj 52 294 expr~ $v1 > $v2;
#X obj 167 164 nbx 5 14 0 100 0 0 empty empty empty 0 -8 0 10 -262144
-1 -1 6 256;
#X obj 166 194 / 100;
#X obj 53 418 dac~;
#X obj 132 407 tabwrite~ pwm;
#X obj 183 323 metro 100;
#X obj 185 301 tgl 15 0 empty empty empty 17 7 0 10 -262144 -1 -1 1
1;
#N canvas 0 50 450 250 (subpatch) 0;
#X array pwm 100 float 1;
#A 0 1 1 1 1 1 1 1 1 1 1 1 1 1 1 1 1 1 1 1 1 1 1 1 1 1 1 1 1 1 1 1
1 1 1 1 1 1 1 1 1 1 1 1 1 1 1 1 1 1 1 1 1 1 1 1 1 1 1 1 1 1 1 1 1 1
1 1 1 1 1 0 0 0 0 0 0 1 1 1 1 1 1 1 1 1 1 1 1 1 1 1 1 1 1 1 1 1 1 1
1;
#X coords 0 1 100 -1 200 140 1;
#X restore 270 340 graph;
#X obj 50 13 notein;
#X obj 66 70 stripnote;
#X obj 162 221 osc~;
#X obj 156 252 abs~;
#X connect 0 0 1 0;
#X connect 1 0 2 0;
#X connect 2 0 5 0;
#X connect 2 0 5 1;
#X connect 2 0 6 0;
#X connect 3 0 4 0;
#X connect 4 0 12 0;
#X connect 7 0 6 0;
#X connect 8 0 7 0;
#X connect 10 0 11 0;
#X connect 10 1 11 1;
#X connect 11 0 0 0;
#X connect 12 0 13 0;
#X connect 13 0 2 1;
