#N canvas 0 94 2048 1058 10;
#X obj 48 72 mtof;
#X obj 49 127 phasor~;
#X obj 43 481 dac~;
#X obj 145 430 metro 100;
#X obj 178 404 tgl 15 0 empty empty empty 17 7 0 10 -262144 -1 -1 1
1;
#N canvas 0 50 450 250 (subpatch) 0;
#X array triangle 100 float 1;
#A 0 0 0 0 0 0 0 0 0 0 0 0 0 0 0 0 0 0 0 0 0 0 0 0 0 0 0 0 0 0 0 0
0 0 0 0 0 0 0 0 0 0 0 0 0 0 0 0 0 0 0 0 0 0 0 0 0 0 0 0 0 0 0 0 0 0
0 0 0 0 0 0 0 0 0 0 0 0 0 0 0 0 0 0 0 0 0 0 0 0 0 0 0 0 0 0 0 0 0 0
0;
#X coords 0 1 100 -1 200 140 1;
#X restore 296 164 graph;
#X obj 197 202 vsl 15 128 0 127 0 0 empty empty empty 0 -9 0 10 -262144
-1 -1 0 1;
#X obj 203 341 /;
#X floatatom 200 362 5 0 0 0 - - -, f 5;
#X msg 233 303 127;
#X obj 48 397 *~;
#X obj 53 42 hsl 128 15 0 127 0 0 empty empty empty -2 -8 0 10 -262144
-1 -1 5500 1;
#X obj 48 153 expr~ 2*(($v1 > 0.5) - $v1);
#X obj 124 467 tabwrite~ triangle;
#X obj 48 184 abs~;
#X connect 0 0 1 0;
#X connect 1 0 12 0;
#X connect 3 0 13 0;
#X connect 4 0 3 0;
#X connect 6 0 7 0;
#X connect 7 0 8 0;
#X connect 8 0 10 1;
#X connect 9 0 7 1;
#X connect 10 0 2 0;
#X connect 10 0 2 1;
#X connect 10 0 13 0;
#X connect 11 0 0 0;
#X connect 12 0 14 0;
#X connect 14 0 10 0;
