#N canvas 1139 370 613 631 10;
#X obj 174 587 dac~;
#X floatatom 59 289 5 0 0 0 - - -, f 5;
#X obj 174 168 mtof;
#X obj 110 244 vsl 15 128 0 127 0 0 empty empty empty 0 -9 0 10 -262144
-1 -1 7700 1;
#X obj 118 381 /;
#X floatatom 117 402 5 0 0 0 - - -, f 5;
#X floatatom 174 135 5 0 0 0 - - -, f 5;
#X obj 59 314 phasor~;
#X obj 285 298 phasor~;
#X floatatom 288 267 5 0 0 0 - - -, f 5;
#X floatatom 174 190 5 0 0 0 - - -, f 5;
#X obj 288 240 +;
#X floatatom 305 216 5 0 0 0 - - -, f 5;
#X obj 63 239 +;
#X floatatom 36 205 5 0 0 0 - - -, f 5;
#X obj 136 76 hsl 128 15 0 127 0 0 empty empty empty -2 -8 0 10 -262144
-1 -1 7900 1;
#X obj 348 240 vsl 15 128 0 127 0 0 empty empty empty 0 -9 0 10 -262144
-1 -1 5900 1;
#X obj 356 377 /;
#X floatatom 355 398 5 0 0 0 - - -, f 5;
#X obj 181 522 +~;
#X msg 148 343 127;
#X msg 387 348 127;
#X obj 307 479 *~;
#X obj 70 464 *~;
#X connect 1 0 7 0;
#X connect 2 0 10 0;
#X connect 3 0 4 0;
#X connect 4 0 5 0;
#X connect 5 0 23 1;
#X connect 6 0 2 0;
#X connect 7 0 23 0;
#X connect 8 0 22 0;
#X connect 9 0 8 0;
#X connect 10 0 11 0;
#X connect 10 0 13 0;
#X connect 11 0 9 0;
#X connect 12 0 11 1;
#X connect 13 0 1 0;
#X connect 14 0 13 1;
#X connect 15 0 6 0;
#X connect 16 0 17 0;
#X connect 17 0 18 0;
#X connect 18 0 22 1;
#X connect 20 0 4 1;
#X connect 21 0 17 1;
